<svg id="visual" viewBox="0 0 900 600" width="900" height="600" xmlns="http://www.w3.org/2000/svg" xmlns:xlink="http://www.w3.org/1999/xlink" version="1.1"><rect width="900" height="600" fill="#00070c"></rect><g><g transform="translate(774 508)"><path d="M0 -62.8L59.7 -19.4L36.9 50.8L-36.9 50.8L-59.7 -19.4Z" fill="#050c11"></path></g><g transform="translate(240 248)"><path d="M0 -37L35.2 -11.4L21.7 29.9L-21.7 29.9L-35.2 -11.4Z" fill="#050c11"></path></g><g transform="translate(311 83)"><path d="M0 -58L55.2 -17.9L34.1 46.9L-34.1 46.9L-55.2 -17.9Z" fill="#050c11"></path></g><g transform="translate(390 230)"><path d="M0 -34L32.3 -10.5L20 27.5L-20 27.5L-32.3 -10.5Z" fill="#050c11"></path></g><g transform="translate(806 384)"><path d="M0 -55L52.3 -17L32.3 44.5L-32.3 44.5L-52.3 -17Z" fill="#050c11"></path></g><g transform="translate(823 75)"><path d="M0 -47L44.7 -14.5L27.6 38L-27.6 38L-44.7 -14.5Z" fill="#050c11"></path></g><g transform="translate(96 158)"><path d="M0 -35L33.3 -10.8L20.6 28.3L-20.6 28.3L-33.3 -10.8Z" fill="#050c11"></path></g><g transform="translate(602 331)"><path d="M0 -35L33.3 -10.8L20.6 28.3L-20.6 28.3L-33.3 -10.8Z" fill="#050c11"></path></g><g transform="translate(140 534)"><path d="M0 -41L39 -12.7L24.1 33.2L-24.1 33.2L-39 -12.7Z" fill="#050c11"></path></g></g></svg>